# xmcd
#
# Track frame offsets:
#	150
#	18000
#	37437
#	58327
#	80955
#	97447
#	120105
#	140180
#	162732
#	183382
#	201692
#	223660
#	240330
#	259580
#	276807
#	301742
#	321662
#
# Disc length: 4554
#
# Revision: 4
# Processed by: cddbd v1.5.1PL0 Copyright (c) Steve Scherf et al.
# Submitted via: audiograbber 1.82.01
# Normalized: r2:DSETVAR1,TSWAP
#
DISCID=1111c811
DTITLE=Various Artist - Red Blooded Blues
DYEAR=1995
DGENRE=Blues
TTITLE0=The Robert Cray Band - I Wonder
TTITLE1=Otis Rush - Don't Burn Down The Bridge
TTITLE2=John Lee Hooker - Chill Out (Things Gonna Change)
TTITLE3=Joan Osborne - Help Me
TTITLE4=Aaron Neville - Down In Muddy Water
TTITLE5=Joe Louis Walker - Red Blooded Blues
TTITLE6=Pops Staples - Hope In a Hopeless World
TTITLE7=John Mayall - Sensitive Kind
TTITLE8=Joe Cocker - Black Eyed Blues
TTITLE9=Paul Rodgers - I Just Want to Make Love To You
TTITLE10=Lucky Peterson - Up From The Skies
TTITLE11=John Hammond - I've Got Love If You Want It
TTITLE12=B.B. King - I'm Moving On
TTITLE13=Etta James - Whatever Gets You Through The Night
TTITLE14=Buddy Guy - Cities Need Help
TTITLE15=The Jeff Healey Band - See The Light
TTITLE16=Willie Dixon - It Don't Make Sense (You Can't Make Peace)
EXTD=
EXTT0=
EXTT1=
EXTT2=
EXTT3=
EXTT4=
EXTT5=
EXTT6=
EXTT7=
EXTT8=
EXTT9=
EXTT10=
EXTT11=
EXTT12=
EXTT13=
EXTT14=
EXTT15=
EXTT16=
PLAYORDER=
